#!OML:ASF Y:\EmotionMaleHayes\Project 1\Capture day 1\Session 1\Male1.ASF
:FULLY-SPECIFIED
:DEGREES
33
root -28.9832 17.072 0.876587 32.9345 83.2001 33.2329
lowerback 7.30179 1.70634 -6.68326
upperback 1.05619 1.75807 -0.619402
thorax -3.18012 0.963465 2.9313
lowerneck -23.9318 3.5594 4.55962
upperneck 26.5276 4.37942 -2.61241
head 13.0383 2.10986 -0.96907
rclavicle 1.67725e-016 -5.61567e-015
rhumerus -32.1926 5.68601 -89.8433
rradius 28.5343
rwrist 7.05939
rhand -12.641 -28.1489
rfingers 7.12502
rthumb 13.4392 -57.6954
lclavicle 1.67725e-016 -5.61567e-015
lhumerus -31.8875 -19.7823 93.5754
lradius 25.4738
lwrist -12.5264
lhand -11.1715 -26.0946
lfingers 7.12502
lthumb 14.8552 3.35285
rfemur 6.74344 -5.40422 11.165
rtibia 8.72904
rfoot -20.7303 -4.78689
rtoes 9.39718
lfemur 10.1434 1.97598 -19.8926
ltibia 4.40049
lfoot -18.9781 10.9569
ltoes -5.90701
34
root -28.966 17.0713 0.879844 33.0594 83.1504 33.2192
lowerback 7.1099 1.70215 -6.70901
upperback 1.10552 1.76789 -0.655599
thorax -3.02196 0.963044 2.91267
lowerneck -24.2626 3.59349 4.59417
upperneck 26.6619 4.37895 -2.54857
head 13.1593 2.11745 -0.946002
rclavicle 1.41634e-015 1.27719e-014
rhumerus -32.0989 5.54182 -89.8766
rradius 28.6934
rwrist 7.02188
rhand -12.4617 -28.6238
rfingers 7.12502
rthumb 13.612 -58.1587
lclavicle 1.41634e-015 1.27719e-014
lhumerus -31.7511 -20.147 93.4843
lradius 25.9236
lwrist -12.2386
lhand -12.1578 -26.2317
lfingers 7.12502
lthumb 13.9049 3.28338
rfemur 6.54905 -5.44405 11.1374
rtibia 8.93019
rfoot -21.0145 -4.61865
rtoes 8.95329
lfemur 10.0732 2.10382 -19.8836
ltibia 4.4178
lfoot -19.3777 10.7209
ltoes -5.63844
35
root -28.9442 17.0698 0.888766 33.0993 83.1783 33.1594
lowerback 6.96337 1.64764 -6.75987
upperback 1.13424 1.70517 -0.648585
thorax -2.90541 0.928401 2.95893
lowerneck -24.3789 3.62638 4.58986
upperneck 26.6084 4.40304 -2.51174
head 13.1606 2.1295 -0.925284
rclavicle 5.62809e-015 -1.02871e-014
rhumerus -32.117 5.5536 -89.9692
rradius 28.8696
rwrist 7.05979
rhand -12.3774 -29.1116
rfingers 7.12502
rthumb 13.6933 -58.6411
lclavicle 5.62809e-015 -1.02871e-014
lhumerus -31.5915 -20.2821 93.3211
lradius 26.37
lwrist -12.1555
lhand -12.1733 -26.426
lfingers 7.12502
lthumb 13.89 3.09014
rfemur 6.53797 -5.4082 11.2179
rtibia 8.96895
rfoot -21.3152 -4.64472
rtoes 8.76287
lfemur 10.1167 2.20603 -19.777
ltibia 4.33171
lfoot -19.6621 10.6277
ltoes -7.30405
36
root -28.921 17.0671 0.904585 33.9741 83.2837 33.9033
lowerback 7.00519 1.55249 -6.89846
upperback 0.994184 1.55704 -0.634414
thorax -3.06371 0.863553 3.06313
lowerneck -24.3851 3.69828 4.66827
upperneck 26.659 4.50775 -2.60242
head 13.1921 2.17099 -0.954051
rclavicle 9.0447e-015 3.97569e-015
rhumerus -32.3641 5.53766 -90.1031
rradius 29.0028
rwrist 7.07397
rhand -12.6819 -28.7566
rfingers 7.12502
rthumb 13.3998 -58.3056
lclavicle 9.0447e-015 3.97569e-015
lhumerus -31.6872 -20.4867 93.3141
lradius 26.8067
lwrist -11.7706
lhand -11.7522 -26.1413
lfingers 7.12502
lthumb 14.2958 3.3466
rfemur 6.58246 -5.35517 11.325
rtibia 8.89472
rfoot -21.5928 -4.9057
rtoes 8.54402
lfemur 10.0966 2.38625 -19.6347
ltibia 4.28889
lfoot -19.7008 10.4436
ltoes -8.83686
37
root -28.9011 17.0636 0.918257 34.4239 83.3571 34.2346
lowerback 7.14318 1.47449 -7.04521
upperback 0.816894 1.42172 -0.566806
thorax -3.31719 0.809432 3.22438
lowerneck -24.3382 3.78187 4.73638
upperneck 26.7648 4.66323 -2.75812
head 13.2397 2.22619 -0.997537
rclavicle -4.06266e-015 1.50579e-014
rhumerus -32.5594 5.44418 -90.1493
rradius 28.9803
rwrist 7.1334
rhand -13.0224 -28.3319
rfingers 7.12502
rthumb 13.0716 -57.9023
lclavicle -4.06266e-015 1.50579e-014
lhumerus -31.6555 -20.3123 93.1498
lradius 27.2675
lwrist -10.5831
lhand -10.5395 -26.0916
lfingers 7.12502
lthumb 15.4641 3.30985
rfemur 6.56222 -5.29735 11.4434
rtibia 8.90492
rfoot -21.8995 -5.09443
rtoes 8.18268
lfemur 10.0726 2.56432 -19.478
ltibia 4.25148
lfoot -19.7425 10.1936
ltoes -7.91791
38
root -28.8753 17.0598 0.924231 35.3835 83.1362 35.1586
lowerback 7.02809 1.4939 -7.29669
upperback 0.892898 1.44163 -0.633743
thorax -3.17985 0.816849 3.29665
lowerneck -24.7064 3.82629 4.86398
upperneck 26.9613 4.69414 -2.85617
head 13.4041 2.23397 -1.0468
rclavicle -2.64011e-015 -1.42131e-014
rhumerus -32.3743 5.12727 -90.1553
rradius 28.9062
rwrist 7.2878
rhand -13.1118 -28.1335
rfingers 7.12502
rthumb 12.9854 -57.7094
lclavicle -2.64011e-015 -1.42131e-014
lhumerus -31.369 -20.6379 92.9484
lradius 27.6156
lwrist -10.2582
lhand -10.5537 -26.4595
lfingers 7.12502
lthumb 15.4504 2.94301
rfemur 6.55883 -5.38275 11.1355
rtibia 9.07344
rfoot -22.2394 -4.89415
rtoes 7.50334
lfemur 10.1591 2.98176 -19.5917
ltibia 4.21759
lfoot -19.869 9.93041
ltoes -8.6224
39
root -28.8465 17.0572 0.928825 37.2211 82.8203 36.9785
lowerback 6.82524 1.52128 -7.66065
upperback 1.03963 1.47679 -0.766771
thorax -2.92222 0.827392 3.36426
lowerneck -24.9953 3.84067 5.04324
upperneck 27.0186 4.68455 -3.04351
head 13.4973 2.21656 -1.14923
rclavicle 1.40827e-014 -5.66536e-015
rhumerus -32.134 4.86251 -90.1845
rradius 28.9179
rwrist 7.29471
rhand -13.0235 -27.9368
rfingers 7.12502
rthumb 13.0705 -57.5073
lclavicle 1.40827e-014 -5.66536e-015
lhumerus -30.9671 -21.0176 92.7022
lradius 27.8482
lwrist -10.4462
lhand -10.8909 -26.9362
lfingers 7.12502
lthumb 15.1256 2.49107
rfemur 6.58799 -5.52346 10.6033
rtibia 9.19501
rfoot -22.4385 -4.68974
rtoes 6.73252
lfemur 10.1448 3.67119 -19.8105
ltibia 4.44638
lfoot -19.9484 9.47772
ltoes -9.66449
40
root -28.8238 17.0557 0.934613 37.2628 82.8586 36.9681
lowerback 7.0018 1.46922 -7.72563
upperback 0.943076 1.38142 -0.70873
thorax -3.11395 0.789439 3.4659
lowerneck -24.8089 3.89359 5.12953
upperneck 26.8684 4.80374 -3.27041
head 13.4124 2.24691 -1.2326
rclavicle 1.07157e-014 -2.66868e-014
rhumerus -32.3107 4.89475 -90.2115
rradius 29.0376
rwrist 7.11495
rhand -12.9369 -27.7836
rfingers 7.12502
rthumb 13.154 -57.3487
lclavicle 1.07157e-014 -2.66868e-014
lhumerus -30.9252 -21.2119 92.6634
lradius 28.1046
lwrist -10.5216
lhand -11.9396 -27.0535
lfingers 7.12502
lthumb 14.1152 2.44702
rfemur 6.62131 -5.57124 10.6323
rtibia 9.2034
rfoot -22.6019 -4.7388
rtoes 6.32953
lfemur 10.0722 4.05982 -19.624
ltibia 4.68864
lfoot -20.0123 9.10766
ltoes -9.91829
41
root -28.8013 17.0518 0.943738 35.9036 83.1108 35.5235
lowerback 7.03464 1.39395 -7.58069
upperback 0.956096 1.29287 -0.542024
thorax -3.10908 0.743139 3.56743
lowerneck -24.8854 3.92916 5.05893
upperneck 26.7101 4.85906 -3.25263
head 13.3621 2.26227 -1.20248
rclavicle -9.42985e-015 1.05356e-014
rhumerus -32.3639 5.10898 -90.244
rradius 29.2663
rwrist 6.60538
rhand -12.8898 -27.806
rfingers 7.12502
rthumb 13.1994 -57.3681
lclavicle -9.42985e-015 1.05356e-014
lhumerus -30.8074 -21.6984 92.7077
lradius 28.4676
lwrist -10.2955
lhand -13.5906 -27.2142
lfingers 7.12502
lthumb 12.5238 2.39046
rfemur 6.68823 -5.46277 11.0784
rtibia 9.09199
rfoot -22.8515 -4.97442
rtoes 5.69079
lfemur 10.0209 4.15847 -19.1666
ltibia 4.79792
lfoot -20.2709 8.7849
ltoes -9.27811
42
root -28.7742 17.0452 0.952988 35.68 83.179 35.2106
lowerback 6.99059 1.34226 -7.47532
upperback 0.98648 1.23717 -0.572294
thorax -3.04316 0.71128 3.4836
lowerneck -25.0122 3.94445 5.04248
upperneck 26.7537 4.86186 -3.19424
head 13.4037 2.26774 -1.1748
rclavicle 3.7707e-015 -3.77691e-015
rhumerus -32.462 5.26077 -90.4877
rradius 29.5834
rwrist 5.92215
rhand -12.7054 -28.2567
rfingers 7.12502
rthumb 13.3771 -57.8073
lclavicle 3.7707e-015 -3.77691e-015
lhumerus -30.6994 -22.3157 92.5847
lradius 28.8852
lwrist -10.2107
lhand -14.9125 -27.2782
lfingers 7.12502
lthumb 11.2491 2.40018
rfemur 6.77236 -5.41151 11.224
rtibia 8.95975
rfoot -23.0866 -5.10876
rtoes 4.55491
lfemur 10.055 3.86152 -19.1555
ltibia 4.72533
lfoot -20.6082 8.84229
ltoes -8.70456
43
root -28.7457 17.0423 0.957673 35.6312 83.2446 35.1452
lowerback 6.99477 1.31994 -7.38532
upperback 1.07098 1.21903 -0.576819
thorax -2.95317 0.696588 3.4312
lowerneck -25.2473 3.91598 5.06413
upperneck 26.9081 4.84271 -3.30629
head 13.519 2.24262 -1.22384
rclavicle 9.69075e-016 -1.7344e-014
rhumerus -32.6167 5.32593 -90.5808
rradius 29.9741
rwrist 5.52699
rhand -12.5236 -28.5781
rfingers 7.12502
rthumb 13.5524 -58.117
lclavicle 9.69075e-016 -1.7344e-014
lhumerus -30.3267 -22.7028 92.4334
lradius 29.4287
lwrist -9.749
lhand -14.7896 -26.7749
lfingers 7.12502
lthumb 11.3677 2.89698
rfemur 6.91695 -5.66043 11.2072
rtibia 8.92322
rfoot -23.241 -4.99188
rtoes 3.50223
lfemur 10.1836 3.56596 -19.2153
ltibia 4.62259
lfoot -20.7421 9.03794
ltoes -8.99124
44
root -28.7187 17.0434 0.963326 36.4184 83.3075 35.916
lowerback 7.11726 1.26446 -7.54194
upperback 1.09681 1.12661 -0.479052
thorax -2.98895 0.653334 3.62866
lowerneck -25.4925 3.90759 4.98376
upperneck 27.0736 4.89807 -3.42468
head 13.6424 2.23792 -1.24432
rclavicle -5.55976e-015 -1.23743e-014
rhumerus -32.8925 5.638 -90.5577
rradius 30.4131
rwrist 5.2863
rhand -12.3811 -28.6407
rfingers 7.12502
rthumb 13.6897 -58.1704
lclavicle -5.55976e-015 -1.23743e-014
lhumerus -29.9853 -22.8789 92.3863
lradius 30.5098
lwrist -7.8641
lhand -12.5677 -25.7338
lfingers 7.12502
lthumb 13.5099 3.80797
rfemur 7.02612 -5.84459 11.1139
rtibia 8.94063
rfoot -23.3842 -4.96643
rtoes 2.92288
lfemur 10.1895 3.60726 -19.2319
ltibia 4.73111
lfoot -20.8194 8.94539
ltoes -9.84361
45
root -28.6912 17.0396 0.973144 37.8651 83.2995 37.2563
lowerback 7.21313 1.2258 -7.66333
upperback 1.04009 1.05255 -0.564817
thorax -3.0935 0.622994 3.61274
lowerneck -25.5343 3.92875 5.06319
upperneck 27.1151 4.89598 -3.427
head 13.6709 2.24454 -1.25851
rclavicle -5.47279e-015 2.49972e-014
rhumerus -33.2182 5.6353 -90.7378
rradius 30.809
rwrist 4.98544
rhand -12.1004 -28.6434
rfingers 7.12502
rthumb 13.9602 -58.1547
lclavicle -5.47279e-015 2.49972e-014
lhumerus -29.8542 -23.3741 92.166
lradius 31.1343
lwrist -7.23628
lhand -12.3789 -25.6383
lfingers 7.12502
lthumb 13.6918 3.89134
rfemur 7.02791 -5.74644 11.02
rtibia 8.93478
rfoot -23.623 -5.12059
rtoes 3.39947
lfemur 10.1887 3.10494 -19.555
ltibia 4.64902
lfoot -20.9783 9.43889
ltoes -10.1858
46
root -28.6624 17.0312 0.984508 37.4571 83.4271 36.6657
lowerback 7.23437 1.19623 -7.60261
upperback 0.982246 1.0131 -0.516142
thorax -3.1611 0.60613 3.63278
lowerneck -25.8782 3.95727 5.29627
upperneck 27.422 4.91292 -3.65383
head 13.887 2.24027 -1.38194
rclavicle 2.15557e-015 -2.88735e-014
rhumerus -33.517 5.66883 -90.8181
rradius 31.2046
rwrist 4.46632
rhand -11.8012 -28.4783
rfingers 7.12502
rthumb 14.2486 -57.9695
lclavicle 2.15557e-015 -2.88735e-014
lhumerus -29.6309 -23.6793 91.9906
lradius 31.7456
lwrist -6.72196
lhand -13.4511 -25.0249
lfingers 7.12502
lthumb 12.6583 4.57147
rfemur 6.9439 -5.65062 11.2816
rtibia 8.95829
rfoot -23.8132 -5.25119
rtoes 3.91759
lfemur 10.1391 2.52396 -19.5799
ltibia 4.58158
lfoot -21.1693 9.93544
ltoes -9.97058
47
root -28.6309 17.0254 0.995244 36.2864 83.5005 35.3057
lowerback 7.23573 1.21416 -7.49548
upperback 0.904975 1.0413 -0.450129
thorax -3.24553 0.623112 3.63799
lowerneck -25.9816 3.92839 5.27845
upperneck 27.6244 4.9045 -3.70285
head 13.9953 2.22806 -1.39996
rclavicle -1.18028e-016 -2.51463e-014
rhumerus -33.898 5.78564 -90.8848
rradius 31.6408
rwrist 3.88939
rhand -11.6793 -28.5056
rfingers 7.12502
rthumb 14.366 -57.9885
lclavicle -1.18028e-016 -2.51463e-014
lhumerus -29.4537 -23.9714 91.8498
lradius 32.2917
lwrist -6.23159
lhand -14.6828 -24.6193
lfingers 7.12502
lthumb 11.4707 5.04692
rfemur 6.82684 -5.46481 11.6033
rtibia 8.98776
rfoot -24.0074 -5.20206
rtoes 4.49885
lfemur 10.0949 2.3396 -19.4308
ltibia 4.54493
lfoot -21.3182 9.94211
ltoes -9.77834
